<svg xmlns="http://www.w3.org/2000/svg" viewBox="0 0 64 64"><path fill="#0ff4e9" d="M32 4A28.03 28.03 0 0 0 4 32c1.537 37.146 54.469 37.135 56 0A28.03 28.03 0 0 0 32 4Zm0 50a22.026 22.026 0 0 1-22-22c1.21-29.186 42.795-29.177 44 0a22.026 22.026 0 0 1-22 22Z"/><path fill="#0ff4e9" d="M32 12a20.02 20.02 0 0 0-20 20c1.096 26.533 38.908 26.526 40 0a20.02 20.02 0 0 0-20-20Zm6.57 24.96A6.587 6.587 0 0 1 33 43.65v3.14a1 1 0 0 1-2 0v-3.14a6.576 6.576 0 0 1-5.57-6.49 1.017 1.017 0 1 1 2 0A4.578 4.578 0 0 0 31 41.62v-9.31c-7.36-1.233-7.37-11.74 0-12.97v-2.13a1 1 0 0 1 2 0v2.13a6.566 6.566 0 0 1 5.57 6.48 1 1 0 1 1-2 0A4.567 4.567 0 0 0 33 21.37v9.1a6.576 6.576 0 0 1 5.57 6.49Z"/><path fill="#0ff4e9" d="M33 41.62c4.74-1.057 4.737-8.065 0-9.12zm-5.57-15.8A4.578 4.578 0 0 0 31 30.28v-8.91a4.567 4.567 0 0 0-3.57 4.45z"/></svg>