<svg xmlns="http://www.w3.org/2000/svg" data-name="Layer 1" viewBox="0 0 64 64"><path fill="#0ff4e9" d="M33.58 26.74A1 1 0 0034 28.6l9.33.52a1 1 0 00.95-.55l4.21-8.34a1 1 0 00-1.39-1.32l-1.71 1L38.67 8.22a7.7 7.7 0 00-13.34 0l-9 15.53a1 1 0 00.37 1.37L25.11 30a1 1 0 001.37-.37L32 20l3.3 5.71zM28.65 45h-11l3.3-5.71 1.71 1A1 1 0 0024 38.93L19.8 30.58a1 1 0 00-.95-.55l-9.33.52a1 1 0 00-.44 1.86l1.71 1L4 45.09a7.7 7.7 0 006.67 11.56H28.65a1 1 0 001-1V46A1 1 0 0028.65 45zM60 45.09L51 29.56a1 1 0 00-1.37-.37L41.24 34a1 1 0 00-.37 1.37L46.39 45H39.8V43A1 1 0 0038 42.44l-5.12 7.82a1 1 0 000 1.1L38 59.18a1 1 0 001.84-.55v-2H53.29A7.7 7.7 0 0060 45.09z"/></svg>