<svg xmlns="http://www.w3.org/2000/svg" viewBox="0 0 70 70"><path fill="#0ff4e9" d="M34.985 3c-17.66 0-31.98 14.32-31.98 31.98 0 17.7 14.32 32.02 31.98 32.02 17.69 0 32.01-14.32 32.01-32.02C66.995 17.32 52.675 3 34.985 3zm-23.33 13.54c2.04-3 4.86-5.4 8.15-6.92a1.06 1.06 0 0 1 1.41.51c.25.54.02 1.17-.52 1.41a17.931 17.931 0 0 0-7.28 6.2 1.082 1.082 0 0 1-1.48.28c-.49-.33-.61-.99-.28-1.48zm-2.69 5.73c.2-.67.43-1.34.69-1.99.22-.54.84-.8 1.38-.58.55.22.81.84.59 1.38-.24.58-.44 1.17-.61 1.77a1.065 1.065 0 0 1-1.32.73c-.56-.16-.89-.75-.73-1.31zm26.04 38.69h-.02c-14.2 0-25.95-11.56-25.95-25.97 0-14.42 11.77-25.95 25.95-25.95h.02c14.22.01 25.96 11.57 25.96 25.95 0 14.36-11.71 25.96-25.96 25.97z"/><path fill="#0ff4e9" d="M50.435 38.87a2.844 2.844 0 0 0 5.51.99h2.51c-1.15 5.59-4.26 10.46-8.57 13.89v-2.53c1.08-.4 1.85-1.43 1.85-2.66 0-1.57-1.27-2.84-2.84-2.84a2.84 2.84 0 0 0-1.01 5.5v3.96a23.92 23.92 0 0 1-5.62 2.65V38.75c0-.58.23-1.13.64-1.55l2.14-2.14c.41.24.89.39 1.41.39a2.844 2.844 0 0 0 0-5.69 2.84 2.84 0 0 0-2.85 2.84c0 .32.06.63.16.91l-2.27 2.28a4.12 4.12 0 0 0-1.23 2.96v19.62c-1.38.31-2.81.5-4.27.57V44.99a2.838 2.838 0 0 0-.99-5.5 2.84 2.84 0 0 0-1.01 5.5v13.95a24 24 0 0 1-4.26-.57V38.75c0-1.12-.44-2.17-1.23-2.96l-2.27-2.28c.1-.28.16-.59.16-.91a2.84 2.84 0 0 0-2.85-2.84c-1.57 0-2.84 1.27-2.84 2.84a2.84 2.84 0 0 0 2.84 2.85c.52 0 .99-.15 1.41-.39l2.14 2.14c.41.41.64.98.64 1.55v19.09c-2-.64-3.89-1.54-5.63-2.66v-3.96c1.08-.4 1.85-1.43 1.85-2.66 0-1.57-1.27-2.84-2.84-2.84a2.84 2.84 0 0 0-1.01 5.5v2.53c-4.3-3.43-7.41-8.3-8.57-13.89h2.57a2.838 2.838 0 0 0 5.5-.99 2.84 2.84 0 0 0-5.5-1.01h-2.89c-.11-.94-.18-1.9-.18-2.87 0-8.07 4.02-15.21 10.15-19.56v5.35c-1.08.4-1.85 1.44-1.85 2.66 0 1.57 1.28 2.84 2.85 2.84s2.85-1.27 2.85-2.84c0-1.22-.77-2.25-1.85-2.66v-6.62c3.22-1.83 6.89-2.94 10.81-3.1v17.41a2.852 2.852 0 0 0-1.84 2.66c0 1.57 1.27 2.84 2.84 2.84a2.84 2.84 0 0 0 2.85-2.84c0-1.22-.77-2.25-1.85-2.66V11.06c3.92.17 7.6 1.28 10.82 3.11v6.61c-1.08.4-1.85 1.43-1.85 2.66 0 1.57 1.28 2.84 2.84 2.84a2.84 2.84 0 0 0 1.01-5.5v-5.34c6.13 4.34 10.15 11.48 10.15 19.55 0 .97-.07 1.93-.18 2.87h-2.85a2.832 2.832 0 0 0-2.66-1.84c-1.56 0-2.84 1.27-2.84 2.85z"/></svg>