<svg xmlns="http://www.w3.org/2000/svg" width="96" height="96" viewBox="0 0 96 96"><path fill="#0ff4e9" style="line-height:normal;text-indent:0;text-align:start;text-decoration-line:none;text-decoration-style:solid;text-decoration-color:#000;text-transform:none;block-progression:tb;white-space:normal;isolation:auto;mix-blend-mode:normal;solid-color:#000;solid-opacity:1" fill-rule="evenodd" d="M 48 0 C 21.502177 0 0 21.5022 0 48 C 0 74.4979 21.502177 96 48 96 C 74.497823 96 96 74.4979 96 48 C 96 21.5022 74.497823 0 48 0 z M 48 2 C 73.416943 2 94 22.5831 94 48 C 94 73.417 73.416943 94 48 94 C 22.583057 94 2 73.417 2 48 C 2 22.5831 22.583057 2 48 2 z M 70.5 27 L 70.5 37.927734 L 64.5 43.367188 L 64.5 44.648438 L 70.5 39.208984 L 70.5 40.490234 L 64.828125 45.632812 L 64.5 45.929688 L 64.5 47.210938 L 65.535156 46.273438 L 70.5 41.771484 L 70.5 43.054688 L 66.242188 46.914062 L 64.828125 48.195312 L 64.5 48.492188 L 64.5 49.773438 L 65.535156 48.835938 L 66.949219 47.554688 L 70.5 44.335938 L 70.5 45.619141 L 67.65625 48.195312 L 64.5 51.056641 L 64.5 52.337891 L 68.363281 48.835938 L 70.5 46.900391 L 70.5 48.181641 L 69.070312 49.476562 L 64.5 53.619141 L 64.5 54.900391 L 69.777344 50.117188 L 70.5 49.462891 L 70.5 50.744141 L 70.484375 50.757812 L 64.5 56.181641 L 64.5 57.462891 L 70.5 52.025391 L 70.5 53.306641 L 64.5 58.744141 L 64.5 60.025391 L 70.5 54.587891 L 70.5 55.869141 L 64.5 61.306641 L 64.5 62.589844 L 70.5 57.152344 L 70.5 58.433594 L 64.5 63.873047 L 64.5 65.154297 L 70.5 59.714844 L 70.5 60.996094 L 64.980469 66 L 66.394531 66 L 70.5 62.279297 L 70.5 63.560547 L 67.808594 66 L 69.222656 66 L 70.5 64.841797 L 70.5 66 L 76.5 66 L 76.5 27 L 70.5 27 z M 65.867188 37 L 64.5 38.238281 L 64.5 39.519531 L 67.28125 37 L 65.867188 37 z M 68.695312 37 L 64.5 40.802734 L 64.5 42.085938 L 70.109375 37 L 68.695312 37 z M 40.5 39 L 40.5 55.023438 L 34.5 61.025391 L 34.5 62.439453 L 40.5 56.4375 L 40.5 57.851562 L 34.828125 63.525391 L 34.5 63.853516 L 34.5 65.267578 L 35.535156 64.232422 L 40.5 59.265625 L 40.5 60.681641 L 36.242188 64.939453 L 35.181641 66 L 36.595703 66 L 36.949219 65.646484 L 40.5 62.095703 L 40.5 63.509766 L 38.009766 66 L 39.423828 66 L 40.5 64.923828 L 40.5 66 L 46.5 66 L 46.5 39 L 40.5 39 z M 55.5 47 L 55.5 50.962891 L 49.5 56.611328 L 49.5 57.943359 L 55.5 52.294922 L 55.5 53.625 L 49.828125 58.964844 L 49.5 59.273438 L 49.5 60.605469 L 50.535156 59.630859 L 55.5 54.955078 L 55.5 56.289062 L 51.242188 60.294922 L 49.828125 61.626953 L 49.5 61.935547 L 49.5 63.265625 L 50.535156 62.292969 L 51.949219 60.960938 L 55.5 57.619141 L 55.5 58.951172 L 52.65625 61.626953 L 49.5 64.597656 L 49.5 65.927734 L 53.363281 62.292969 L 55.5 60.28125 L 55.5 61.611328 L 54.070312 62.957031 L 50.837891 66 L 52.251953 66 L 54.777344 63.623047 L 55.5 62.943359 L 55.5 64.273438 L 55.484375 64.289062 L 53.666016 66 L 55.080078 66 L 55.5 65.605469 L 55.5 66 L 61.5 66 L 61.5 47 L 55.5 47 z M 25.5 50 L 25.5 52.955078 L 19.5 58.556641 L 19.5 59.876953 L 25.5 54.275391 L 25.5 55.595703 L 19.828125 60.890625 L 19.5 61.197266 L 19.5 62.515625 L 20.535156 61.550781 L 25.5 56.914062 L 25.5 58.236328 L 21.242188 62.210938 L 19.828125 63.529297 L 19.5 63.835938 L 19.5 65.15625 L 20.535156 64.189453 L 21.949219 62.869141 L 25.5 59.556641 L 25.5 60.875 L 22.65625 63.529297 L 20.009766 66 L 21.423828 66 L 23.363281 64.189453 L 25.5 62.195312 L 25.5 63.515625 L 24.070312 64.849609 L 22.837891 66 L 24.251953 66 L 24.777344 65.509766 L 25.5 64.835938 L 25.5 66 L 31.5 66 L 31.5 50 L 25.5 50 z M 50.867188 50 L 49.5 51.287109 L 49.5 52.617188 L 52.28125 50 L 50.867188 50 z M 53.695312 50 L 49.5 53.949219 L 49.5 55.28125 L 55.109375 50 L 53.695312 50 z M 20.867188 52 L 19.5 53.275391 L 19.5 54.595703 L 22.28125 52 L 20.867188 52 z M 23.695312 52 L 19.5 55.916016 L 19.5 57.238281 L 25.109375 52 L 23.695312 52 z M 35.867188 54 L 34.5 55.367188 L 34.5 56.78125 L 37.28125 54 L 35.867188 54 z M 38.695312 54 L 34.5 58.195312 L 34.5 59.611328 L 40.109375 54 L 38.695312 54 z M 18.550781 67 C 17.968126 67 17.5 67.431297 17.5 67.966797 L 17.5 68.033203 C 17.5 68.568703 17.968126 68.9997 18.550781 69 L 77.449219 69 C 78.031874 69 78.5 68.568703 78.5 68.033203 L 78.5 67.966797 C 78.5 67.431297 78.031874 67 77.449219 67 L 18.550781 67 z " color="#000" enable-background="accumulate" font-family="sans-serif" font-weight="400" overflow="visible"/></svg>