<svg xmlns="http://www.w3.org/2000/svg" data-name="Layer 1" viewBox="0 0 95 118.75" x="0px" y="0px" fill="#0ff4e9"><path class="cls-1" d="M66.233,10.951a1.051,1.051,0,1,1-.074-2.1l7.666-.293a1.054,1.054,0,0,1,1.057,1.306l-1.513,7.47a1.05,1.05,0,0,1-2.06-.412l.932-4.6L49.082,31.507l0,0a1.05,1.05,0,0,1-1.473-.133l-5.371-6.387L8.258,51.015a1.052,1.052,0,1,1-1.277-1.673L41.754,22.7a1.053,1.053,0,0,1,1.475.2l.013.018,5.3,6.3L70.8,10.776l-4.567.175ZM18.955,64.118H10.2V76.984h8.753V64.118ZM34.14,54.464H25.388v22.52H34.14V54.464ZM49.326,44.81H40.573V76.984h8.753V44.81ZM76.312,61.762a1.055,1.055,0,1,1,2.109,0v.318A5.722,5.722,0,0,1,83.084,67.7a1.055,1.055,0,1,1-2.109,0,3.609,3.609,0,1,0-7.217,0c0,2.72,1.925,3.179,3.851,3.638,2.738.652,5.475,1.3,5.475,5.689a5.722,5.722,0,0,1-4.663,5.621v.319a1.055,1.055,0,0,1-2.109,0v-.319a5.722,5.722,0,0,1-4.664-5.621,1.055,1.055,0,1,1,2.11,0,3.609,3.609,0,1,0,7.217,0c0-2.72-1.926-3.179-3.852-3.638-2.737-.652-5.475-1.3-5.475-5.689a5.722,5.722,0,0,1,4.664-5.621v-.318Zm11.01.647a14.081,14.081,0,1,0,4.123,9.956,14.036,14.036,0,0,0-4.123-9.956ZM61.847,76.984a16.218,16.218,0,0,1,2.664-14.459v-27H55.758V76.984ZM77.366,56.176a16.27,16.27,0,0,1,2.33.167V24.076H70.943V57.5a16.136,16.136,0,0,1,6.423-1.325ZM64.384,82.037H4.61a1.055,1.055,0,1,1,0-2.109H63.05A3.377,3.377,0,0,0,64.384,82.037Z"/></svg>