<svg xmlns="http://www.w3.org/2000/svg" xmlns:xlink="http://www.w3.org/1999/xlink" xml:space="preserve" version="1.1" style="shape-rendering:geometricPrecision;text-rendering:geometricPrecision;image-rendering:optimizeQuality;" viewBox="0 0 846.66 1058.325" x="0px" y="0px" fill-rule="evenodd" clip-rule="evenodd" fill="#0ff4e9"><g><path class="fil0" d="M292.74 44.29c102.52,12.91 176.83,66.26 247.36,138.88l-59.89 29.19 206.18 49.54c8.72,-21.2 33.55,-80.31 74.88,-170.03l-60.51 22.75c-113.64,-97.66 -278.35,-118.82 -408.02,-70.33zm528.34 401.16c-62.44,82.33 -145.8,120.01 -243.95,144.78l4.66 -66.47 -145.99 153.8c14.01,18.15 52.78,69.21 109.82,149.86l10.55 -63.78c141.4,-49.59 242.07,-181.66 264.91,-318.19zm9.16 -55.66c-1.59,-81.1 -29,-147.44 -90.76,-189.82 39.3,82.73 46.09,195.35 16.21,282.06 29.33,-25.02 54.55,-55.42 74.55,-92.24zm-620.73 312.64c-40.08,-95.24 -31.04,-186.28 -3.42,-283.66l55.24 37.27 -60.2 -203.33c-22.72,3.05 -86.33,11.1 -184.7,20.17l49.97 41.03c-27.76,147.25 36.28,300.46 143.11,388.52zm30.45 -638.24c-69.44,41.93 -113.18,98.83 -119,173.52 51.98,-75.41 146.12,-137.6 236.16,-155.08 -36.33,-12.89 -75.27,-19.52 -117.16,-18.44zm13.17 674c71.02,39.17 142.18,48.6 209.77,16.31 -91.3,-7.33 -192.23,-57.77 -252.38,-126.99 7,37.91 20.72,74.94 42.61,110.68z"/></g></svg>