<svg xmlns="http://www.w3.org/2000/svg" viewBox="0 0 24 30" fill="#0ff4e9" x="0px" y="0px"><path fill-rule="evenodd" clip-rule="evenodd" d="M4.5 8C4.22386 8 4 8.22386 4 8.5V19C4 19.2761 4.22386 19.5 4.5 19.5H19.5C19.7761 19.5 20 19.2761 20 19V10.5C20 10.2239 19.7761 10 19.5 10H11.1754L8.81235 8.10957C8.72369 8.03864 8.61354 8 8.5 8H4.5ZM9.5 15C9.22386 15 9 15.2239 9 15.5C9 15.7761 9.22386 16 9.5 16H15C15.2761 16 15.5 15.7761 15.5 15.5C15.5 15.2239 15.2761 15 15 15H9.5ZM16.5 15C16.2239 15 16 15.2239 16 15.5C16 15.7761 16.2239 16 16.5 16H17.5C17.7761 16 18 15.7761 18 15.5C18 15.2239 17.7761 15 17.5 15H16.5Z" fill="#0ff4e9"/><path d="M16.9142 7.05051L12.74 8.16899C12.378 8.26598 12.1632 8.63804 12.2602 9L18.4719 9L18.139 7.75762C17.996 7.22415 17.4477 6.90757 16.9142 7.05051Z" fill="#0ff4e9"/><path d="M15.8316 5.61025L13.5211 6.94424C13.2933 7.07576 13.2152 7.36704 13.3467 7.59483L17.5 6.5L17.1976 5.97627C16.9215 5.49798 16.3099 5.3341 15.8316 5.61025Z" fill="#0ff4e9"/></svg>