<svg xmlns="http://www.w3.org/2000/svg" viewBox="0 0 12.69999 15.87500125" version="1.1" x="0px" y="0px"><g transform="translate(-111.94662,-69.158474)"><path d="M 113.72842 72.338125 A 0.39691468 0.39691468 0 0 0 113.33207 72.730349 L 113.33207 78.287116 C 113.33207 78.622761 113.39831 78.960728 113.6075 79.240029 C 113.81665 79.519331 114.17895 79.693231 114.58574 79.693231 L 119.40405 79.693231 L 121.7424 79.693231 C 122.55596 79.693231 123.26169 79.083475 123.26169 78.287116 L 123.26169 74.749864 C 123.26169 73.953505 122.55596 73.343748 121.7424 73.343748 L 114.85135 73.343748 C 114.42447 73.343748 114.12478 73.050011 114.12478 72.730349 A 0.39691468 0.39691468 0 0 0 113.72842 72.338125 z M 118.29765 74.369009 A 2.1501927 2.1501927 0 0 1 120.44791 76.519265 A 2.1501927 2.1501927 0 0 1 118.29765 78.669521 A 2.1501927 2.1501927 0 0 1 116.1474 76.519265 A 2.1501927 2.1501927 0 0 1 118.29765 74.369009 z " fill="#0ff4e9" fill-opacity="1" stroke="none" stop-color="#000000"/><path style="color:#000000;" d="m 114.85156,71.322266 c -0.81298,-2e-6 -1.51953,0.611924 -1.51953,1.408203 0,0.796279 0.70655,1.406251 1.51953,1.40625 a 0.39687499,0.39687499 0 0 0 0.39649,-0.396485 0.39687499,0.39687499 0 0 0 -0.39649,-0.396484 c -0.42688,10e-7 -0.72656,-0.293617 -0.72656,-0.613281 0,-0.319664 0.29968,-0.613282 0.72656,-0.613282 h 6.00196 c 0.27631,0 0.49218,0.215876 0.49218,0.492188 v 1.130859 a 0.39687499,0.39687499 0 0 0 0.39649,0.396485 0.39687499,0.39687499 0 0 0 0.39648,-0.396485 v -1.130859 c 0,-0.705286 -0.57987,-1.287109 -1.28515,-1.287109 z" fill="#0ff4e9" stroke-linecap="round" stroke-linejoin="round"/><path style="color:#0ff4e9;" d="m 118.03964,77.704466 -0.92602,-0.927702 c -0.15297,-0.153254 -0.13135,-0.384196 -2e-5,-0.51407 0.15515,-0.15343 0.38281,-0.128513 0.51418,0 l 0.30437,0.304374 3e-5,-0.972656 c 0,-0.210638 0.16754,-0.365247 0.36533,-0.365247 0.21221,0 0.3638,0.178369 0.3638,0.365353 v 0.973067 l 0.28842,-0.288916 c 0.17029,-0.191592 0.4556,-0.139704 0.56866,0.02738 0.0827,0.122219 0.11468,0.31917 -0.037,0.470825 l -0.93895,0.937286 c -0.025,0.02499 -0.11527,0.09573 -0.24496,0.09573 -0.13187,0 -0.21628,-0.06375 -0.25787,-0.10542 z" fill="#0ff4e9" stroke-width="0.999999" stroke-linecap="round" stroke-linejoin="round"/></g></svg>