<svg xmlns="http://www.w3.org/2000/svg" viewBox="0 0 512 512"><path d="M488.68 348.36a42 42 0 0 0-59.41 0l-21.72 21.74-20.55-2.47-25.88-42.86a55.72 55.72 0 0 1-4.66-47.85l63-173.4a42 42 0 0 0-79-28.71l-14.42 39.67a8.31 8.31 0 0 1-15.04 1.06q-4.71-8.72-10-16.84c-14.69-22.37-32.18-40.18-52-52.94-22.26-14.35-46.24-21.62-71.26-21.62s-49 7.27-71.27 21.62c-19.81 12.76-37.3 30.57-52 52.94C26.41 141.33 11 197.19 11 256s15.41 114.67 43.4 157.29c14.69 22.38 32.18 40.19 52 52.95 22.26 14.34 46.24 21.61 71.27 21.61s49-7.27 71.26-21.61c19.81-12.76 37.3-30.57 52-52.95q4.08-6.19 7.79-12.78l16.41 27.19c12.56 20.79 34.35 34.48 59.81 37.58a87.47 87.47 0 0 0 10.45.63c22.29 0 43.83-8.58 59.14-23.91l34.2-34.23a42 42 0 0 0-.05-59.41Zm-311 55.47C138.57 403.83 95 343.12 95 256s43.55-147.84 82.64-147.84 82.65 60.72 82.65 147.84-43.55 147.83-82.63 147.83Z" data-name="1 Alpha"/></svg>